<?xml version="1.0" encoding="UTF-8" standalone="no"?>
<svg
   version="1.1"
   id="Layer_1"
   x="0px"
   y="0px"
   width="74px"
   height="56px"
   viewBox="0 0 74 56"
   xml:space="preserve"
   sodipodi:docname="discoverdistributions-compareDistributions.svg"
   inkscape:version="1.2.2 (b0a84865, 2022-12-01)"
   xmlns:inkscape="http://www.inkscape.org/namespaces/inkscape"
   xmlns:sodipodi="http://sodipodi.sourceforge.net/DTD/sodipodi-0.dtd"
   xmlns="http://www.w3.org/2000/svg"
   xmlns:svg="http://www.w3.org/2000/svg"><defs
   id="defs21" /><sodipodi:namedview
   id="namedview19"
   pagecolor="#ffffff"
   bordercolor="#000000"
   borderopacity="0.25"
   inkscape:showpageshadow="2"
   inkscape:pageopacity="0.0"
   inkscape:pagecheckerboard="0"
   inkscape:deskcolor="#d1d1d1"
   showgrid="false"
   inkscape:zoom="4.2142857"
   inkscape:cx="37.016949"
   inkscape:cy="28.355932"
   inkscape:window-width="1307"
   inkscape:window-height="665"
   inkscape:window-x="493"
   inkscape:window-y="343"
   inkscape:window-maximized="0"
   inkscape:current-layer="Layer_1" />

  <!-- Axes -->
  <rect
   style="fill:#919191"
   x="0"
   y="-0.118"
   width="8"
   height="54"
   id="rect2" />
  <rect
   style="fill:#919191"
   x="0"
   y="47.882"
   width="74"
   height="8"
   id="rect4" />

  <!-- Axis shadow -->
  <g
   style="opacity:0.5"
   id="g8">
    <polygon
   style="fill:#717171"
   points="0.293,-0.118 2.293,-0.118 2.285,52.976 73.907,53.857 73.882,55.847 0.285,54.951"
   id="polygon6" />
  </g>

  <!-- Orange bell curve (mu=30, sigma=10, height=35) — filled area -->
  <path
   style="fill:#ff6600;opacity:0.75"
   d="M 8,47.84        L 8,44.73 10,43.10 12,40.91 14,38.11 16,34.71 18,30.80          20,26.61 22,22.43 24,18.61 26,15.53 28,13.53 30,12.84          32,13.53 34,15.53 36,18.61 38,22.43 40,26.61 42,30.80          44,34.71 46,38.11 48,40.91 50,43.10 52,44.73 54,45.88          56,46.65 58,47.15 60,47.45 62,47.63 64,47.74 66,47.80          68,47.83 70,47.84 74,47.84 Z"
   id="path10" />

  <!-- Blue bell curve (mu=45, sigma=10, height=35) — filled area -->
  <path
   style="opacity:0.75;fill:#3771c8;stroke-width:0.894707"
   d="m 8,47.84 h 5.978428 l 1.99281,-0.417763 1.992809,-0.313322 1.99281,-0.506135 1.992809,-0.763221 1.99281,-1.092609 1.992809,-1.518408 1.99281,-2.024542 1.992809,-2.490509 1.992809,-2.956474 1.99281,-3.269797 1.992809,-3.390305 1.99281,-3.261763 1.992809,-2.811863 1.99281,-2.064713 1.992809,-1.09261 0.996405,-0.14461 0.996405,0.14461 1.992809,1.09261 1.992809,2.064713 1.99281,2.811863 1.992809,3.261763 1.99281,3.390305 1.992809,3.269797 1.99281,2.956474 1.992809,2.490509 1.99281,2.024542 1.992809,1.518408 1.99281,1.092609 1.992809,0.763221 1.992809,0.506135 1.99281,0.313322 V 47.84 Z"
   id="path12" />

  <!-- Axis corner shadow -->
  <polygon
   style="fill:#717171"
   points="74.285,47.843 8.285,47.843 8.285,-0.158 6.785,49.843"
   id="polygon14" />

  <!-- Frame shadow overlay -->
  <path
   style="opacity:0.6;fill:#4b4b4b"
   d="M 0.285,-0.158 0.87,13.587 1.327,27.334 c 0.329,9.165 0.477,18.333 0.7,27.499        L 1.301,54.111 c 12.167,0.078 24.33,0.396 36.495,0.588 l 18.245,0.486        c 6.081,0.199 12.162,0.389 18.242,0.656 C 68.199,55.943 62.115,55.967 56.029,56        L 37.779,55.988 C 25.614,55.849 13.447,55.835 1.283,55.581        L 0.566,55.566 0.557,54.859 C 0.446,45.691 0.257,36.523 0.25,27.353        L 0.203,13.599 Z"
   id="path16" />

</svg>
